<mxfile host="Electron" agent="Mozilla/5.0 (Windows NT 10.0; Win64; x64) AppleWebKit/537.36 (KHTML, like Gecko) draw.io/26.0.9 Chrome/128.0.6613.186 Electron/32.2.5 Safari/537.36" version="26.0.9" pages="2">
  <diagram name="Event Storming" id="L4ce27mr79lYEIY5dhR_">
    <mxGraphModel dx="2184" dy="1272" grid="1" gridSize="10" guides="1" tooltips="1" connect="1" arrows="1" fold="1" page="1" pageScale="1" pageWidth="850" pageHeight="1100" math="0" shadow="0">
      <root>
        <mxCell id="0" />
        <mxCell id="1" parent="0" />
        <mxCell id="Vg6m_Z9qzxaBKwDg_oJu-1" value="Событие" style="rounded=1;whiteSpace=wrap;html=1;fillColor=#ffe6cc;strokeColor=#d79b00;fontSize=20;" parent="1" vertex="1">
          <mxGeometry x="100" y="260" width="120" height="120" as="geometry" />
        </mxCell>
        <mxCell id="Vg6m_Z9qzxaBKwDg_oJu-3" value="Команда" style="rounded=1;whiteSpace=wrap;html=1;fillColor=#dae8fc;strokeColor=#6c8ebf;fontSize=20;" parent="1" vertex="1">
          <mxGeometry x="100" y="390" width="120" height="120" as="geometry" />
        </mxCell>
        <mxCell id="Vg6m_Z9qzxaBKwDg_oJu-7" value="" style="group" parent="1" vertex="1" connectable="0">
          <mxGeometry x="80" y="220" width="160" height="490" as="geometry" />
        </mxCell>
        <mxCell id="Vg6m_Z9qzxaBKwDg_oJu-77" value="" style="group" parent="Vg6m_Z9qzxaBKwDg_oJu-7" vertex="1" connectable="0">
          <mxGeometry y="-8.91" width="160" height="328.91" as="geometry" />
        </mxCell>
        <mxCell id="Vg6m_Z9qzxaBKwDg_oJu-2" value="Легенда" style="text;html=1;align=center;verticalAlign=middle;whiteSpace=wrap;rounded=0;fontSize=18;" parent="Vg6m_Z9qzxaBKwDg_oJu-77" vertex="1">
          <mxGeometry x="50" y="0.0005993247096870928" width="60" height="22.025183080934614" as="geometry" />
        </mxCell>
        <mxCell id="Vg6m_Z9qzxaBKwDg_oJu-5" value="" style="swimlane;startSize=0;" parent="Vg6m_Z9qzxaBKwDg_oJu-77" vertex="1">
          <mxGeometry width="160" height="328.91" as="geometry" />
        </mxCell>
        <mxCell id="Vg6m_Z9qzxaBKwDg_oJu-14" value="Отпуск&lt;div&gt;спланирован&lt;/div&gt;" style="rounded=1;whiteSpace=wrap;html=1;fillColor=#ffe6cc;strokeColor=#d79b00;fontSize=20;" parent="1" vertex="1">
          <mxGeometry x="470" y="360" width="130" height="120" as="geometry" />
        </mxCell>
        <mxCell id="Vg6m_Z9qzxaBKwDg_oJu-15" value="Запрос руководителю&lt;div&gt;отправлен&lt;/div&gt;" style="rounded=1;whiteSpace=wrap;html=1;fillColor=#ffe6cc;strokeColor=#d79b00;fontSize=20;" parent="1" vertex="1">
          <mxGeometry x="820" y="360" width="140" height="120" as="geometry" />
        </mxCell>
        <mxCell id="Vg6m_Z9qzxaBKwDg_oJu-16" value="Запрос заказчику отправлен" style="rounded=1;whiteSpace=wrap;html=1;fillColor=#ffe6cc;strokeColor=#d79b00;fontSize=20;" parent="1" vertex="1">
          <mxGeometry x="1160" y="360" width="140" height="120" as="geometry" />
        </mxCell>
        <mxCell id="Vg6m_Z9qzxaBKwDg_oJu-17" value="Запрос удовлетворен" style="rounded=1;whiteSpace=wrap;html=1;fillColor=#ffe6cc;strokeColor=#d79b00;fontSize=20;" parent="1" vertex="1">
          <mxGeometry x="1510" y="360" width="140" height="120" as="geometry" />
        </mxCell>
        <mxCell id="Vg6m_Z9qzxaBKwDg_oJu-19" value="Офис-менеджер уведомлен" style="rounded=1;whiteSpace=wrap;html=1;fillColor=#ffe6cc;strokeColor=#d79b00;fontSize=20;" parent="1" vertex="1">
          <mxGeometry x="2230" y="380" width="140" height="120" as="geometry" />
        </mxCell>
        <mxCell id="Vg6m_Z9qzxaBKwDg_oJu-20" value="Отпуск отмечен в Forecast" style="rounded=1;whiteSpace=wrap;html=1;fillColor=#ffe6cc;strokeColor=#d79b00;fontSize=20;" parent="1" vertex="1">
          <mxGeometry x="2560" y="380" width="140" height="120" as="geometry" />
        </mxCell>
        <mxCell id="Vg6m_Z9qzxaBKwDg_oJu-21" value="Отпуск отмечен в Holidays" style="rounded=1;whiteSpace=wrap;html=1;fillColor=#ffe6cc;strokeColor=#d79b00;fontSize=20;" parent="1" vertex="1">
          <mxGeometry x="2560" y="510" width="140" height="120" as="geometry" />
        </mxCell>
        <mxCell id="Vg6m_Z9qzxaBKwDg_oJu-22" value="Отпуск отмечен в 1С" style="rounded=1;whiteSpace=wrap;html=1;fillColor=#ffe6cc;strokeColor=#d79b00;fontSize=20;" parent="1" vertex="1">
          <mxGeometry x="2560" y="640" width="140" height="120" as="geometry" />
        </mxCell>
        <mxCell id="Vg6m_Z9qzxaBKwDg_oJu-23" value="Сотрудник уведомлен о наступающем отпуске" style="rounded=1;whiteSpace=wrap;html=1;fillColor=#ffe6cc;strokeColor=#d79b00;fontSize=20;" parent="1" vertex="1">
          <mxGeometry x="3020" y="540" width="140" height="120" as="geometry" />
        </mxCell>
        <mxCell id="Vg6m_Z9qzxaBKwDg_oJu-24" value="Отпуск подтвержден сотрудником" style="rounded=1;whiteSpace=wrap;html=1;fillColor=#ffe6cc;strokeColor=#d79b00;fontSize=20;" parent="1" vertex="1">
          <mxGeometry x="3380" y="540" width="140" height="120" as="geometry" />
        </mxCell>
        <mxCell id="Vg6m_Z9qzxaBKwDg_oJu-25" value="Отпускные начислены" style="rounded=1;whiteSpace=wrap;html=1;fillColor=#ffe6cc;strokeColor=#d79b00;fontSize=20;" parent="1" vertex="1">
          <mxGeometry x="3900" y="540" width="140" height="120" as="geometry" />
        </mxCell>
        <mxCell id="Vg6m_Z9qzxaBKwDg_oJu-26" value="Спланировать отпуск" style="rounded=1;whiteSpace=wrap;html=1;fillColor=#dae8fc;strokeColor=#6c8ebf;fontSize=20;" parent="1" vertex="1">
          <mxGeometry x="320" y="360" width="140" height="120" as="geometry" />
        </mxCell>
        <mxCell id="Vg6m_Z9qzxaBKwDg_oJu-12" value="Сотрудник" style="shape=umlActor;verticalLabelPosition=bottom;verticalAlign=top;html=1;outlineConnect=0;fontSize=20;" parent="1" vertex="1">
          <mxGeometry x="300" y="450" width="30" height="60" as="geometry" />
        </mxCell>
        <mxCell id="Vg6m_Z9qzxaBKwDg_oJu-40" value="Отправить запрос заказчику" style="rounded=1;whiteSpace=wrap;html=1;fillColor=#dae8fc;strokeColor=#6c8ebf;fontSize=20;" parent="1" vertex="1">
          <mxGeometry x="1000" y="360" width="140" height="120" as="geometry" />
        </mxCell>
        <mxCell id="Vg6m_Z9qzxaBKwDg_oJu-41" value="Руководитель" style="shape=umlActor;verticalLabelPosition=bottom;verticalAlign=top;html=1;outlineConnect=0;fontSize=20;" parent="1" vertex="1">
          <mxGeometry x="980" y="450" width="30" height="60" as="geometry" />
        </mxCell>
        <mxCell id="Vg6m_Z9qzxaBKwDg_oJu-42" value="Заказчик" style="shape=umlActor;verticalLabelPosition=bottom;verticalAlign=top;html=1;outlineConnect=0;fontSize=20;" parent="1" vertex="1">
          <mxGeometry x="1320" y="450" width="30" height="60" as="geometry" />
        </mxCell>
        <mxCell id="Vg6m_Z9qzxaBKwDg_oJu-43" value="Рассмотреть запрос" style="rounded=1;whiteSpace=wrap;html=1;fillColor=#dae8fc;strokeColor=#6c8ebf;fontSize=20;" parent="1" vertex="1">
          <mxGeometry x="1340" y="360" width="140" height="120" as="geometry" />
        </mxCell>
        <mxCell id="Vg6m_Z9qzxaBKwDg_oJu-48" value="Заказчик" style="shape=umlActor;verticalLabelPosition=bottom;verticalAlign=top;html=1;outlineConnect=0;fontSize=20;" parent="1" vertex="1">
          <mxGeometry x="1690" y="450" width="30" height="60" as="geometry" />
        </mxCell>
        <mxCell id="Vg6m_Z9qzxaBKwDg_oJu-49" value="Ответить руководителю" style="rounded=1;whiteSpace=wrap;html=1;fillColor=#dae8fc;strokeColor=#6c8ebf;fontSize=20;" parent="1" vertex="1">
          <mxGeometry x="1710" y="360" width="140" height="120" as="geometry" />
        </mxCell>
        <mxCell id="Vg6m_Z9qzxaBKwDg_oJu-50" value="Руководитель уведомлен о согласовании" style="rounded=1;whiteSpace=wrap;html=1;fillColor=#ffe6cc;strokeColor=#d79b00;fontSize=20;" parent="1" vertex="1">
          <mxGeometry x="1870" y="360" width="140" height="120" as="geometry" />
        </mxCell>
        <mxCell id="Vg6m_Z9qzxaBKwDg_oJu-51" value="Руководитель" style="shape=umlActor;verticalLabelPosition=bottom;verticalAlign=top;html=1;outlineConnect=0;fontSize=20;" parent="1" vertex="1">
          <mxGeometry x="2050" y="450" width="30" height="60" as="geometry" />
        </mxCell>
        <mxCell id="Vg6m_Z9qzxaBKwDg_oJu-52" value="Уведомить работника" style="rounded=1;whiteSpace=wrap;html=1;fillColor=#dae8fc;strokeColor=#6c8ebf;fontSize=20;" parent="1" vertex="1">
          <mxGeometry x="2080" y="230" width="140" height="120" as="geometry" />
        </mxCell>
        <mxCell id="Vg6m_Z9qzxaBKwDg_oJu-53" value="Уведомить офис-менеджера" style="rounded=1;whiteSpace=wrap;html=1;fillColor=#dae8fc;strokeColor=#6c8ebf;fontSize=20;" parent="1" vertex="1">
          <mxGeometry x="2080" y="380" width="140" height="120" as="geometry" />
        </mxCell>
        <mxCell id="Vg6m_Z9qzxaBKwDg_oJu-54" value="Работник уведомлен о согласовании" style="rounded=1;whiteSpace=wrap;html=1;fillColor=#ffe6cc;strokeColor=#d79b00;fontSize=20;" parent="1" vertex="1">
          <mxGeometry x="2230" y="230" width="140" height="120" as="geometry" />
        </mxCell>
        <mxCell id="Vg6m_Z9qzxaBKwDg_oJu-55" value="Офис-менеджер" style="shape=umlActor;verticalLabelPosition=bottom;verticalAlign=top;html=1;outlineConnect=0;fontSize=20;" parent="1" vertex="1">
          <mxGeometry x="2380" y="710" width="30" height="60" as="geometry" />
        </mxCell>
        <mxCell id="Vg6m_Z9qzxaBKwDg_oJu-56" value="Отметить отпуск в 1С" style="rounded=1;whiteSpace=wrap;html=1;fillColor=#dae8fc;strokeColor=#6c8ebf;fontSize=20;" parent="1" vertex="1">
          <mxGeometry x="2410" y="640" width="140" height="120" as="geometry" />
        </mxCell>
        <mxCell id="Vg6m_Z9qzxaBKwDg_oJu-57" value="Отметить отпуск в Holidays" style="rounded=1;whiteSpace=wrap;html=1;fillColor=#dae8fc;strokeColor=#6c8ebf;fontSize=20;" parent="1" vertex="1">
          <mxGeometry x="2410" y="510" width="140" height="120" as="geometry" />
        </mxCell>
        <mxCell id="Vg6m_Z9qzxaBKwDg_oJu-58" value="Отметить отпуск в Forecast" style="rounded=1;whiteSpace=wrap;html=1;fillColor=#dae8fc;strokeColor=#6c8ebf;fontSize=20;" parent="1" vertex="1">
          <mxGeometry x="2410" y="380" width="140" height="120" as="geometry" />
        </mxCell>
        <mxCell id="Vg6m_Z9qzxaBKwDg_oJu-60" value="Офис-менеджер" style="shape=umlActor;verticalLabelPosition=bottom;verticalAlign=top;html=1;outlineConnect=0;fontSize=20;" parent="1" vertex="1">
          <mxGeometry x="2840" y="610" width="30" height="60" as="geometry" />
        </mxCell>
        <mxCell id="Vg6m_Z9qzxaBKwDg_oJu-61" value="Просьба подтвердить отпуск" style="rounded=1;whiteSpace=wrap;html=1;fillColor=#dae8fc;strokeColor=#6c8ebf;fontSize=20;" parent="1" vertex="1">
          <mxGeometry x="2870" y="540" width="140" height="120" as="geometry" />
        </mxCell>
        <mxCell id="Vg6m_Z9qzxaBKwDg_oJu-62" value="Подтверждает отпуск" style="rounded=1;whiteSpace=wrap;html=1;fillColor=#dae8fc;strokeColor=#6c8ebf;fontSize=20;" parent="1" vertex="1">
          <mxGeometry x="3230" y="540" width="140" height="120" as="geometry" />
        </mxCell>
        <mxCell id="Vg6m_Z9qzxaBKwDg_oJu-63" value="Сотрудник" style="shape=umlActor;verticalLabelPosition=bottom;verticalAlign=top;html=1;outlineConnect=0;fontSize=20;" parent="1" vertex="1">
          <mxGeometry x="3210" y="630" width="30" height="60" as="geometry" />
        </mxCell>
        <mxCell id="Vg6m_Z9qzxaBKwDg_oJu-64" value="3 дня до&lt;div&gt;начала отпуска&lt;/div&gt;" style="text;html=1;align=center;verticalAlign=middle;resizable=0;points=[];autosize=1;strokeColor=none;fillColor=none;fontSize=20;" parent="1" vertex="1">
          <mxGeometry x="3550" y="560" width="170" height="60" as="geometry" />
        </mxCell>
        <mxCell id="Vg6m_Z9qzxaBKwDg_oJu-65" value="Начислить отпускные" style="rounded=1;whiteSpace=wrap;html=1;fillColor=#dae8fc;strokeColor=#6c8ebf;fontSize=20;" parent="1" vertex="1">
          <mxGeometry x="3750" y="540" width="140" height="120" as="geometry" />
        </mxCell>
        <mxCell id="Vg6m_Z9qzxaBKwDg_oJu-66" value="Офис-менеджер" style="shape=umlActor;verticalLabelPosition=bottom;verticalAlign=top;html=1;outlineConnect=0;fontSize=20;" parent="1" vertex="1">
          <mxGeometry x="3720" y="610" width="30" height="60" as="geometry" />
        </mxCell>
        <mxCell id="Vg6m_Z9qzxaBKwDg_oJu-67" value="" style="swimlane;startSize=0;" parent="1" vertex="1">
          <mxGeometry x="260" y="220" width="3840" height="600" as="geometry" />
        </mxCell>
        <mxCell id="Vg6m_Z9qzxaBKwDg_oJu-72" value="Планирование" style="swimlane;whiteSpace=wrap;html=1;strokeColor=default;fontColor=#000000;fillColor=none;fontSize=20;labelBorderColor=none;labelBackgroundColor=default;" parent="Vg6m_Z9qzxaBKwDg_oJu-67" vertex="1">
          <mxGeometry y="100" width="350" height="240" as="geometry" />
        </mxCell>
        <mxCell id="Vg6m_Z9qzxaBKwDg_oJu-30" value="Сотрудник" style="shape=umlActor;verticalLabelPosition=bottom;verticalAlign=top;html=1;outlineConnect=0;fontSize=20;" parent="Vg6m_Z9qzxaBKwDg_oJu-67" vertex="1">
          <mxGeometry x="390" y="230" width="30" height="60" as="geometry" />
        </mxCell>
        <mxCell id="Vg6m_Z9qzxaBKwDg_oJu-29" value="Отправить запрос руководителю" style="rounded=1;whiteSpace=wrap;html=1;fillColor=#dae8fc;strokeColor=#6c8ebf;fontSize=20;" parent="Vg6m_Z9qzxaBKwDg_oJu-67" vertex="1">
          <mxGeometry x="410" y="140" width="140" height="120" as="geometry" />
        </mxCell>
        <mxCell id="Vg6m_Z9qzxaBKwDg_oJu-73" value="Согласование" style="swimlane;whiteSpace=wrap;html=1;strokeColor=default;fontColor=#000000;fillColor=none;fontSize=20;labelBorderColor=none;labelBackgroundColor=default;" parent="Vg6m_Z9qzxaBKwDg_oJu-67" vertex="1">
          <mxGeometry x="350" y="-30" width="1770" height="370" as="geometry" />
        </mxCell>
        <mxCell id="Vg6m_Z9qzxaBKwDg_oJu-74" value="Установка отпуска" style="swimlane;whiteSpace=wrap;html=1;strokeColor=default;fontColor=#000000;fillColor=none;fontSize=20;labelBorderColor=none;labelBackgroundColor=default;" parent="Vg6m_Z9qzxaBKwDg_oJu-67" vertex="1">
          <mxGeometry x="2100" y="130" width="360" height="460" as="geometry" />
        </mxCell>
        <mxCell id="Vg6m_Z9qzxaBKwDg_oJu-59" value="Неделя до&lt;div&gt;начала отпуска&lt;/div&gt;" style="text;html=1;align=center;verticalAlign=middle;resizable=0;points=[];autosize=1;strokeColor=none;fillColor=none;fontSize=20;" parent="Vg6m_Z9qzxaBKwDg_oJu-67" vertex="1">
          <mxGeometry x="2450" y="320" width="170" height="60" as="geometry" />
        </mxCell>
        <mxCell id="Vg6m_Z9qzxaBKwDg_oJu-75" value="Подтверждение отпуска" style="swimlane;whiteSpace=wrap;html=1;strokeColor=default;fontColor=#000000;fillColor=none;fontSize=20;labelBorderColor=none;labelBackgroundColor=default;" parent="Vg6m_Z9qzxaBKwDg_oJu-67" vertex="1">
          <mxGeometry x="2520" y="130" width="770" height="460" as="geometry" />
        </mxCell>
        <mxCell id="Vg6m_Z9qzxaBKwDg_oJu-76" value="Начисление отпускных" style="swimlane;whiteSpace=wrap;html=1;strokeColor=default;fontColor=#000000;fillColor=none;fontSize=20;labelBorderColor=none;labelBackgroundColor=default;" parent="Vg6m_Z9qzxaBKwDg_oJu-67" vertex="1">
          <mxGeometry x="3400" y="130" width="420" height="460" as="geometry" />
        </mxCell>
        <mxCell id="WGGc9Z-hREylXS4mxG-b-1" value="Поток событий AS-IS" style="text;strokeColor=none;align=center;fillColor=none;html=1;verticalAlign=middle;whiteSpace=wrap;rounded=0;fontSize=64;" vertex="1" parent="1">
          <mxGeometry x="1860" y="30" width="730" height="30" as="geometry" />
        </mxCell>
      </root>
    </mxGraphModel>
  </diagram>
  <diagram id="KMKJLWCOSBeqUptgM-ix" name="Impact Mapping">
    <mxGraphModel dx="1933" dy="1648" grid="1" gridSize="10" guides="1" tooltips="1" connect="1" arrows="1" fold="1" page="1" pageScale="1" pageWidth="850" pageHeight="1100" math="0" shadow="0">
      <root>
        <mxCell id="0" />
        <mxCell id="1" parent="0" />
        <mxCell id="bajX8-q50_OBg6LSKrls-1" style="edgeStyle=orthogonalEdgeStyle;rounded=0;orthogonalLoop=1;jettySize=auto;html=1;curved=1;entryX=0;entryY=0.5;entryDx=0;entryDy=0;fontSize=15;" parent="1" source="bajX8-q50_OBg6LSKrls-5" target="bajX8-q50_OBg6LSKrls-23" edge="1">
          <mxGeometry relative="1" as="geometry" />
        </mxCell>
        <mxCell id="bajX8-q50_OBg6LSKrls-2" style="edgeStyle=orthogonalEdgeStyle;shape=connector;curved=1;rounded=0;orthogonalLoop=1;jettySize=auto;html=1;entryX=0;entryY=0.5;entryDx=0;entryDy=0;strokeColor=default;align=center;verticalAlign=middle;fontFamily=Helvetica;fontSize=15;fontColor=default;labelBackgroundColor=default;endArrow=classic;" parent="1" source="bajX8-q50_OBg6LSKrls-5" target="bajX8-q50_OBg6LSKrls-27" edge="1">
          <mxGeometry relative="1" as="geometry" />
        </mxCell>
        <mxCell id="bajX8-q50_OBg6LSKrls-3" style="edgeStyle=orthogonalEdgeStyle;shape=connector;curved=1;rounded=0;orthogonalLoop=1;jettySize=auto;html=1;entryX=0;entryY=0.5;entryDx=0;entryDy=0;strokeColor=default;align=center;verticalAlign=middle;fontFamily=Helvetica;fontSize=15;fontColor=default;labelBackgroundColor=default;endArrow=classic;" parent="1" source="bajX8-q50_OBg6LSKrls-5" target="bajX8-q50_OBg6LSKrls-31" edge="1">
          <mxGeometry relative="1" as="geometry" />
        </mxCell>
        <mxCell id="bajX8-q50_OBg6LSKrls-4" style="edgeStyle=orthogonalEdgeStyle;shape=connector;curved=1;rounded=0;orthogonalLoop=1;jettySize=auto;html=1;entryX=0;entryY=0.5;entryDx=0;entryDy=0;strokeColor=default;align=center;verticalAlign=middle;fontFamily=Helvetica;fontSize=15;fontColor=default;labelBackgroundColor=default;endArrow=classic;" parent="1" source="bajX8-q50_OBg6LSKrls-5" target="bajX8-q50_OBg6LSKrls-33" edge="1">
          <mxGeometry relative="1" as="geometry" />
        </mxCell>
        <mxCell id="bajX8-q50_OBg6LSKrls-5" value="Сократить объем ручной работы по планированию и согласованию отпускных дней на 50% после запуска MVP" style="rounded=1;whiteSpace=wrap;html=1;fillColor=#ffe6cc;strokeColor=#d79b00;fontSize=15;" parent="1" vertex="1">
          <mxGeometry x="270" y="298.5" width="210" height="110" as="geometry" />
        </mxCell>
        <mxCell id="bajX8-q50_OBg6LSKrls-6" value="" style="shape=table;startSize=0;container=1;collapsible=0;childLayout=tableLayout;fontSize=15;" parent="1" vertex="1">
          <mxGeometry x="-200" y="220" width="460" height="277" as="geometry" />
        </mxCell>
        <mxCell id="bajX8-q50_OBg6LSKrls-7" value="" style="shape=tableRow;horizontal=0;startSize=0;swimlaneHead=0;swimlaneBody=0;strokeColor=inherit;top=0;left=0;bottom=0;right=0;collapsible=0;dropTarget=0;fillColor=none;points=[[0,0.5],[1,0.5]];portConstraint=eastwest;fontSize=15;" parent="bajX8-q50_OBg6LSKrls-6" vertex="1">
          <mxGeometry width="460" height="90" as="geometry" />
        </mxCell>
        <mxCell id="bajX8-q50_OBg6LSKrls-8" value="Объект измерения" style="shape=partialRectangle;html=1;whiteSpace=wrap;connectable=0;strokeColor=inherit;overflow=hidden;fillColor=none;top=0;left=0;bottom=0;right=0;pointerEvents=1;fontSize=15;" parent="bajX8-q50_OBg6LSKrls-7" vertex="1">
          <mxGeometry width="100" height="90" as="geometry">
            <mxRectangle width="100" height="90" as="alternateBounds" />
          </mxGeometry>
        </mxCell>
        <mxCell id="bajX8-q50_OBg6LSKrls-9" value="Количество ручных действий, выполняемых участниками процесса планирования и согласования" style="shape=partialRectangle;html=1;whiteSpace=wrap;connectable=0;strokeColor=inherit;overflow=hidden;fillColor=none;top=0;left=0;bottom=0;right=0;pointerEvents=1;fontSize=15;align=left;spacingTop=0;spacing=5;" parent="bajX8-q50_OBg6LSKrls-7" vertex="1">
          <mxGeometry x="100" width="360" height="90" as="geometry">
            <mxRectangle width="360" height="90" as="alternateBounds" />
          </mxGeometry>
        </mxCell>
        <mxCell id="bajX8-q50_OBg6LSKrls-10" value="" style="shape=tableRow;horizontal=0;startSize=0;swimlaneHead=0;swimlaneBody=0;strokeColor=inherit;top=0;left=0;bottom=0;right=0;collapsible=0;dropTarget=0;fillColor=none;points=[[0,0.5],[1,0.5]];portConstraint=eastwest;fontSize=15;" parent="bajX8-q50_OBg6LSKrls-6" vertex="1">
          <mxGeometry y="90" width="460" height="62" as="geometry" />
        </mxCell>
        <mxCell id="bajX8-q50_OBg6LSKrls-11" value="Где считаем" style="shape=partialRectangle;html=1;whiteSpace=wrap;connectable=0;strokeColor=inherit;overflow=hidden;fillColor=none;top=0;left=0;bottom=0;right=0;pointerEvents=1;fontSize=15;" parent="bajX8-q50_OBg6LSKrls-10" vertex="1">
          <mxGeometry width="100" height="62" as="geometry">
            <mxRectangle width="100" height="62" as="alternateBounds" />
          </mxGeometry>
        </mxCell>
        <mxCell id="bajX8-q50_OBg6LSKrls-12" value="Бизнес-процесс планирования и согласования отпускных дней (Event Storming)" style="shape=partialRectangle;html=1;whiteSpace=wrap;connectable=0;strokeColor=inherit;overflow=hidden;fillColor=none;top=0;left=0;bottom=0;right=0;pointerEvents=1;fontSize=15;align=left;spacingTop=0;spacing=5;" parent="bajX8-q50_OBg6LSKrls-10" vertex="1">
          <mxGeometry x="100" width="360" height="62" as="geometry">
            <mxRectangle width="360" height="62" as="alternateBounds" />
          </mxGeometry>
        </mxCell>
        <mxCell id="bajX8-q50_OBg6LSKrls-13" value="" style="shape=tableRow;horizontal=0;startSize=0;swimlaneHead=0;swimlaneBody=0;strokeColor=inherit;top=0;left=0;bottom=0;right=0;collapsible=0;dropTarget=0;fillColor=none;points=[[0,0.5],[1,0.5]];portConstraint=eastwest;fontSize=15;" parent="bajX8-q50_OBg6LSKrls-6" vertex="1">
          <mxGeometry y="152" width="460" height="63" as="geometry" />
        </mxCell>
        <mxCell id="bajX8-q50_OBg6LSKrls-14" value="Сейчас" style="shape=partialRectangle;html=1;whiteSpace=wrap;connectable=0;strokeColor=inherit;overflow=hidden;fillColor=none;top=0;left=0;bottom=0;right=0;pointerEvents=1;fontSize=15;" parent="bajX8-q50_OBg6LSKrls-13" vertex="1">
          <mxGeometry width="100" height="63" as="geometry">
            <mxRectangle width="100" height="63" as="alternateBounds" />
          </mxGeometry>
        </mxCell>
        <mxCell id="bajX8-q50_OBg6LSKrls-15" value="13" style="shape=partialRectangle;html=1;whiteSpace=wrap;connectable=0;strokeColor=inherit;overflow=hidden;fillColor=none;top=0;left=0;bottom=0;right=0;pointerEvents=1;fontSize=15;align=center;spacingTop=0;spacing=5;" parent="bajX8-q50_OBg6LSKrls-13" vertex="1">
          <mxGeometry x="100" width="360" height="63" as="geometry">
            <mxRectangle width="360" height="63" as="alternateBounds" />
          </mxGeometry>
        </mxCell>
        <mxCell id="bajX8-q50_OBg6LSKrls-16" style="shape=tableRow;horizontal=0;startSize=0;swimlaneHead=0;swimlaneBody=0;strokeColor=inherit;top=0;left=0;bottom=0;right=0;collapsible=0;dropTarget=0;fillColor=none;points=[[0,0.5],[1,0.5]];portConstraint=eastwest;fontSize=15;" parent="bajX8-q50_OBg6LSKrls-6" vertex="1">
          <mxGeometry y="215" width="460" height="62" as="geometry" />
        </mxCell>
        <mxCell id="bajX8-q50_OBg6LSKrls-17" value="Цель" style="shape=partialRectangle;html=1;whiteSpace=wrap;connectable=0;strokeColor=inherit;overflow=hidden;fillColor=none;top=0;left=0;bottom=0;right=0;pointerEvents=1;fontSize=15;" parent="bajX8-q50_OBg6LSKrls-16" vertex="1">
          <mxGeometry width="100" height="62" as="geometry">
            <mxRectangle width="100" height="62" as="alternateBounds" />
          </mxGeometry>
        </mxCell>
        <mxCell id="bajX8-q50_OBg6LSKrls-18" value="7" style="shape=partialRectangle;html=1;whiteSpace=wrap;connectable=0;strokeColor=inherit;overflow=hidden;fillColor=none;top=0;left=0;bottom=0;right=0;pointerEvents=1;fontSize=15;align=center;spacingTop=0;spacing=5;" parent="bajX8-q50_OBg6LSKrls-16" vertex="1">
          <mxGeometry x="100" width="360" height="62" as="geometry">
            <mxRectangle width="360" height="62" as="alternateBounds" />
          </mxGeometry>
        </mxCell>
        <mxCell id="bajX8-q50_OBg6LSKrls-19" style="edgeStyle=orthogonalEdgeStyle;shape=connector;curved=1;rounded=0;orthogonalLoop=1;jettySize=auto;html=1;entryX=0;entryY=0.5;entryDx=0;entryDy=0;strokeColor=default;align=center;verticalAlign=middle;fontFamily=Helvetica;fontSize=15;fontColor=default;labelBackgroundColor=default;endArrow=classic;" parent="1" source="bajX8-q50_OBg6LSKrls-23" target="bajX8-q50_OBg6LSKrls-36" edge="1">
          <mxGeometry relative="1" as="geometry" />
        </mxCell>
        <mxCell id="bajX8-q50_OBg6LSKrls-20" style="edgeStyle=orthogonalEdgeStyle;shape=connector;curved=1;rounded=0;orthogonalLoop=1;jettySize=auto;html=1;entryX=0;entryY=0.5;entryDx=0;entryDy=0;strokeColor=default;align=center;verticalAlign=middle;fontFamily=Helvetica;fontSize=15;fontColor=default;labelBackgroundColor=default;endArrow=classic;" parent="1" source="bajX8-q50_OBg6LSKrls-23" target="bajX8-q50_OBg6LSKrls-39" edge="1">
          <mxGeometry relative="1" as="geometry" />
        </mxCell>
        <mxCell id="bajX8-q50_OBg6LSKrls-21" style="edgeStyle=orthogonalEdgeStyle;shape=connector;curved=1;rounded=0;orthogonalLoop=1;jettySize=auto;html=1;entryX=0;entryY=0.5;entryDx=0;entryDy=0;strokeColor=default;align=center;verticalAlign=middle;fontFamily=Helvetica;fontSize=15;fontColor=default;labelBackgroundColor=default;endArrow=classic;" parent="1" source="bajX8-q50_OBg6LSKrls-23" target="bajX8-q50_OBg6LSKrls-42" edge="1">
          <mxGeometry relative="1" as="geometry" />
        </mxCell>
        <mxCell id="bajX8-q50_OBg6LSKrls-22" style="edgeStyle=orthogonalEdgeStyle;shape=connector;curved=1;rounded=0;orthogonalLoop=1;jettySize=auto;html=1;entryX=0;entryY=0.5;entryDx=0;entryDy=0;strokeColor=default;align=center;verticalAlign=middle;fontFamily=Helvetica;fontSize=15;fontColor=default;labelBackgroundColor=default;endArrow=classic;" parent="1" source="bajX8-q50_OBg6LSKrls-23" target="bajX8-q50_OBg6LSKrls-58" edge="1">
          <mxGeometry relative="1" as="geometry" />
        </mxCell>
        <mxCell id="bajX8-q50_OBg6LSKrls-23" value="Офис-менеджер" style="rounded=1;whiteSpace=wrap;html=1;fillColor=#CCE5FF;strokeColor=#66B2FF;fontSize=15;" parent="1" vertex="1">
          <mxGeometry x="530" y="10" width="130" height="51.5" as="geometry" />
        </mxCell>
        <mxCell id="bajX8-q50_OBg6LSKrls-24" style="edgeStyle=orthogonalEdgeStyle;shape=connector;curved=1;rounded=0;orthogonalLoop=1;jettySize=auto;html=1;entryX=0;entryY=0.5;entryDx=0;entryDy=0;strokeColor=default;align=center;verticalAlign=middle;fontFamily=Helvetica;fontSize=15;fontColor=default;labelBackgroundColor=default;endArrow=classic;" parent="1" source="bajX8-q50_OBg6LSKrls-27" target="bajX8-q50_OBg6LSKrls-46" edge="1">
          <mxGeometry relative="1" as="geometry" />
        </mxCell>
        <mxCell id="bajX8-q50_OBg6LSKrls-25" style="edgeStyle=orthogonalEdgeStyle;shape=connector;curved=1;rounded=0;orthogonalLoop=1;jettySize=auto;html=1;entryX=0;entryY=0.5;entryDx=0;entryDy=0;strokeColor=default;align=center;verticalAlign=middle;fontFamily=Helvetica;fontSize=15;fontColor=default;labelBackgroundColor=default;endArrow=classic;" parent="1" source="bajX8-q50_OBg6LSKrls-27" target="bajX8-q50_OBg6LSKrls-49" edge="1">
          <mxGeometry relative="1" as="geometry" />
        </mxCell>
        <mxCell id="bajX8-q50_OBg6LSKrls-26" style="edgeStyle=orthogonalEdgeStyle;shape=connector;curved=1;rounded=0;orthogonalLoop=1;jettySize=auto;html=1;entryX=0;entryY=0.5;entryDx=0;entryDy=0;strokeColor=default;align=center;verticalAlign=middle;fontFamily=Helvetica;fontSize=15;fontColor=default;labelBackgroundColor=default;endArrow=classic;" parent="1" source="bajX8-q50_OBg6LSKrls-27" target="bajX8-q50_OBg6LSKrls-75" edge="1">
          <mxGeometry relative="1" as="geometry" />
        </mxCell>
        <mxCell id="bajX8-q50_OBg6LSKrls-27" value="Руководитель" style="rounded=1;whiteSpace=wrap;html=1;fillColor=#CCE5FF;strokeColor=#66B2FF;fontSize=15;" parent="1" vertex="1">
          <mxGeometry x="520" y="1745" width="130" height="51.5" as="geometry" />
        </mxCell>
        <mxCell id="bajX8-q50_OBg6LSKrls-28" style="edgeStyle=orthogonalEdgeStyle;shape=connector;curved=1;rounded=0;orthogonalLoop=1;jettySize=auto;html=1;entryX=0;entryY=0.5;entryDx=0;entryDy=0;strokeColor=default;align=center;verticalAlign=middle;fontFamily=Helvetica;fontSize=15;fontColor=default;labelBackgroundColor=default;endArrow=classic;" parent="1" source="bajX8-q50_OBg6LSKrls-31" target="bajX8-q50_OBg6LSKrls-63" edge="1">
          <mxGeometry relative="1" as="geometry" />
        </mxCell>
        <mxCell id="bajX8-q50_OBg6LSKrls-29" style="edgeStyle=orthogonalEdgeStyle;shape=connector;curved=1;rounded=0;orthogonalLoop=1;jettySize=auto;html=1;entryX=0;entryY=0.5;entryDx=0;entryDy=0;strokeColor=default;align=center;verticalAlign=middle;fontFamily=Helvetica;fontSize=15;fontColor=default;labelBackgroundColor=default;endArrow=classic;" parent="1" source="bajX8-q50_OBg6LSKrls-31" target="bajX8-q50_OBg6LSKrls-66" edge="1">
          <mxGeometry relative="1" as="geometry" />
        </mxCell>
        <mxCell id="bajX8-q50_OBg6LSKrls-30" style="edgeStyle=orthogonalEdgeStyle;shape=connector;curved=1;rounded=0;orthogonalLoop=1;jettySize=auto;html=1;entryX=0;entryY=0.5;entryDx=0;entryDy=0;strokeColor=default;align=center;verticalAlign=middle;fontFamily=Helvetica;fontSize=15;fontColor=default;labelBackgroundColor=default;endArrow=classic;" parent="1" source="bajX8-q50_OBg6LSKrls-31" target="bajX8-q50_OBg6LSKrls-69" edge="1">
          <mxGeometry relative="1" as="geometry" />
        </mxCell>
        <mxCell id="bajX8-q50_OBg6LSKrls-31" value="Сотрудник" style="rounded=1;whiteSpace=wrap;html=1;fillColor=#CCE5FF;strokeColor=#66B2FF;fontSize=15;" parent="1" vertex="1">
          <mxGeometry x="530" y="2700" width="130" height="51.5" as="geometry" />
        </mxCell>
        <mxCell id="bajX8-q50_OBg6LSKrls-32" style="edgeStyle=orthogonalEdgeStyle;shape=connector;curved=1;rounded=0;orthogonalLoop=1;jettySize=auto;html=1;strokeColor=default;align=center;verticalAlign=middle;fontFamily=Helvetica;fontSize=15;fontColor=default;labelBackgroundColor=default;endArrow=classic;" parent="1" source="bajX8-q50_OBg6LSKrls-33" target="bajX8-q50_OBg6LSKrls-72" edge="1">
          <mxGeometry relative="1" as="geometry" />
        </mxCell>
        <mxCell id="bajX8-q50_OBg6LSKrls-33" value="Заказчик" style="rounded=1;whiteSpace=wrap;html=1;fillColor=#CCE5FF;strokeColor=#66B2FF;fontSize=15;" parent="1" vertex="1">
          <mxGeometry x="530" y="3339.25" width="130" height="51.5" as="geometry" />
        </mxCell>
        <mxCell id="bajX8-q50_OBg6LSKrls-34" style="edgeStyle=orthogonalEdgeStyle;shape=connector;curved=1;rounded=0;orthogonalLoop=1;jettySize=auto;html=1;entryX=0;entryY=0.5;entryDx=0;entryDy=0;strokeColor=default;align=center;verticalAlign=middle;fontFamily=Helvetica;fontSize=15;fontColor=default;labelBackgroundColor=default;endArrow=classic;" parent="1" source="bajX8-q50_OBg6LSKrls-36" target="bajX8-q50_OBg6LSKrls-76" edge="1">
          <mxGeometry relative="1" as="geometry" />
        </mxCell>
        <mxCell id="bajX8-q50_OBg6LSKrls-35" style="edgeStyle=orthogonalEdgeStyle;shape=connector;curved=1;rounded=0;orthogonalLoop=1;jettySize=auto;html=1;strokeColor=default;align=center;verticalAlign=middle;fontFamily=Helvetica;fontSize=15;fontColor=default;labelBackgroundColor=default;endArrow=classic;" parent="1" source="bajX8-q50_OBg6LSKrls-36" target="bajX8-q50_OBg6LSKrls-79" edge="1">
          <mxGeometry relative="1" as="geometry" />
        </mxCell>
        <mxCell id="bajX8-q50_OBg6LSKrls-36" value="Автоматически устанавливать отпускные дни в учетных системах" style="rounded=1;whiteSpace=wrap;html=1;fillColor=#B9EDE3;strokeColor=#67AB9F;fontSize=15;" parent="1" vertex="1">
          <mxGeometry x="720" y="-490" width="160" height="100" as="geometry" />
        </mxCell>
        <mxCell id="bajX8-q50_OBg6LSKrls-37" style="edgeStyle=orthogonalEdgeStyle;shape=connector;curved=1;rounded=0;orthogonalLoop=1;jettySize=auto;html=1;entryX=0;entryY=0.5;entryDx=0;entryDy=0;strokeColor=default;align=center;verticalAlign=middle;fontFamily=Helvetica;fontSize=15;fontColor=default;labelBackgroundColor=default;endArrow=classic;" parent="1" source="bajX8-q50_OBg6LSKrls-39" target="bajX8-q50_OBg6LSKrls-77" edge="1">
          <mxGeometry relative="1" as="geometry" />
        </mxCell>
        <mxCell id="bajX8-q50_OBg6LSKrls-38" style="edgeStyle=orthogonalEdgeStyle;shape=connector;curved=1;rounded=0;orthogonalLoop=1;jettySize=auto;html=1;entryX=0;entryY=0.5;entryDx=0;entryDy=0;strokeColor=default;align=center;verticalAlign=middle;fontFamily=Helvetica;fontSize=15;fontColor=default;labelBackgroundColor=default;endArrow=classic;" parent="1" source="bajX8-q50_OBg6LSKrls-39" target="bajX8-q50_OBg6LSKrls-78" edge="1">
          <mxGeometry relative="1" as="geometry" />
        </mxCell>
        <mxCell id="bajX8-q50_OBg6LSKrls-39" value="Автоматически запрашивать подтверждение отпускных дней за неделю до начала" style="rounded=1;whiteSpace=wrap;html=1;fillColor=#B9EDE3;strokeColor=#67AB9F;fontSize=15;" parent="1" vertex="1">
          <mxGeometry x="720" y="-290" width="160" height="100" as="geometry" />
        </mxCell>
        <mxCell id="bajX8-q50_OBg6LSKrls-40" style="edgeStyle=orthogonalEdgeStyle;shape=connector;curved=1;rounded=0;orthogonalLoop=1;jettySize=auto;html=1;strokeColor=default;align=center;verticalAlign=middle;fontFamily=Helvetica;fontSize=15;fontColor=default;labelBackgroundColor=default;endArrow=classic;" parent="1" source="bajX8-q50_OBg6LSKrls-42" target="bajX8-q50_OBg6LSKrls-80" edge="1">
          <mxGeometry relative="1" as="geometry" />
        </mxCell>
        <mxCell id="bajX8-q50_OBg6LSKrls-41" style="edgeStyle=orthogonalEdgeStyle;shape=connector;curved=1;rounded=0;orthogonalLoop=1;jettySize=auto;html=1;strokeColor=default;align=center;verticalAlign=middle;fontFamily=Helvetica;fontSize=15;fontColor=default;labelBackgroundColor=default;endArrow=classic;" parent="1" source="bajX8-q50_OBg6LSKrls-42" target="bajX8-q50_OBg6LSKrls-81" edge="1">
          <mxGeometry relative="1" as="geometry" />
        </mxCell>
        <mxCell id="bajX8-q50_OBg6LSKrls-42" value="Иметь напоминание, когда выплачивать отпускные сотруднику" style="rounded=1;whiteSpace=wrap;html=1;fillColor=#B9EDE3;strokeColor=#67AB9F;fontSize=15;" parent="1" vertex="1">
          <mxGeometry x="720" y="40" width="160" height="100" as="geometry" />
        </mxCell>
        <mxCell id="bajX8-q50_OBg6LSKrls-43" style="edgeStyle=orthogonalEdgeStyle;shape=connector;curved=1;rounded=0;orthogonalLoop=1;jettySize=auto;html=1;entryX=0;entryY=0.5;entryDx=0;entryDy=0;strokeColor=default;align=center;verticalAlign=middle;fontFamily=Helvetica;fontSize=15;fontColor=default;labelBackgroundColor=default;endArrow=classic;" parent="1" source="bajX8-q50_OBg6LSKrls-46" target="bajX8-q50_OBg6LSKrls-89" edge="1">
          <mxGeometry relative="1" as="geometry" />
        </mxCell>
        <mxCell id="bajX8-q50_OBg6LSKrls-44" style="edgeStyle=orthogonalEdgeStyle;shape=connector;curved=1;rounded=0;orthogonalLoop=1;jettySize=auto;html=1;strokeColor=default;align=center;verticalAlign=middle;fontFamily=Helvetica;fontSize=15;fontColor=default;labelBackgroundColor=default;endArrow=classic;" parent="1" source="bajX8-q50_OBg6LSKrls-46" target="bajX8-q50_OBg6LSKrls-88" edge="1">
          <mxGeometry relative="1" as="geometry" />
        </mxCell>
        <mxCell id="bajX8-q50_OBg6LSKrls-45" style="edgeStyle=orthogonalEdgeStyle;shape=connector;curved=1;rounded=0;orthogonalLoop=1;jettySize=auto;html=1;entryX=0;entryY=0.5;entryDx=0;entryDy=0;strokeColor=default;align=center;verticalAlign=middle;fontFamily=Helvetica;fontSize=15;fontColor=default;labelBackgroundColor=default;endArrow=classic;" parent="1" source="bajX8-q50_OBg6LSKrls-46" target="bajX8-q50_OBg6LSKrls-99" edge="1">
          <mxGeometry relative="1" as="geometry" />
        </mxCell>
        <mxCell id="bajX8-q50_OBg6LSKrls-46" value="Получать информацию о запрошенных отпускных днях проектной команды" style="rounded=1;whiteSpace=wrap;html=1;fillColor=#B9EDE3;strokeColor=#67AB9F;fontSize=15;" parent="1" vertex="1">
          <mxGeometry x="720" y="1480" width="160" height="100" as="geometry" />
        </mxCell>
        <mxCell id="bajX8-q50_OBg6LSKrls-47" style="edgeStyle=orthogonalEdgeStyle;shape=connector;curved=1;rounded=0;orthogonalLoop=1;jettySize=auto;html=1;strokeColor=default;align=center;verticalAlign=middle;fontFamily=Helvetica;fontSize=15;fontColor=default;labelBackgroundColor=default;endArrow=classic;" parent="1" source="bajX8-q50_OBg6LSKrls-49" target="bajX8-q50_OBg6LSKrls-91" edge="1">
          <mxGeometry relative="1" as="geometry" />
        </mxCell>
        <mxCell id="bajX8-q50_OBg6LSKrls-48" style="edgeStyle=orthogonalEdgeStyle;shape=connector;curved=1;rounded=0;orthogonalLoop=1;jettySize=auto;html=1;entryX=0;entryY=0.5;entryDx=0;entryDy=0;strokeColor=default;align=center;verticalAlign=middle;fontFamily=Helvetica;fontSize=15;fontColor=default;labelBackgroundColor=default;endArrow=classic;" parent="1" source="bajX8-q50_OBg6LSKrls-49" target="bajX8-q50_OBg6LSKrls-92" edge="1">
          <mxGeometry relative="1" as="geometry" />
        </mxCell>
        <mxCell id="bajX8-q50_OBg6LSKrls-49" value="Отсылать актуальную информацию об отпусках команды заказчику" style="rounded=1;whiteSpace=wrap;html=1;fillColor=#B9EDE3;strokeColor=#67AB9F;fontSize=15;" parent="1" vertex="1">
          <mxGeometry x="710" y="1810" width="160" height="110" as="geometry" />
        </mxCell>
        <mxCell id="bajX8-q50_OBg6LSKrls-50" style="edgeStyle=orthogonalEdgeStyle;shape=connector;curved=1;rounded=0;orthogonalLoop=1;jettySize=auto;html=1;entryX=0;entryY=0.5;entryDx=0;entryDy=0;strokeColor=default;align=center;verticalAlign=middle;fontFamily=Helvetica;fontSize=15;fontColor=default;labelBackgroundColor=default;endArrow=classic;" parent="1" source="bajX8-q50_OBg6LSKrls-58" target="bajX8-q50_OBg6LSKrls-82" edge="1">
          <mxGeometry relative="1" as="geometry" />
        </mxCell>
        <mxCell id="bajX8-q50_OBg6LSKrls-51" style="edgeStyle=orthogonalEdgeStyle;shape=connector;curved=1;rounded=0;orthogonalLoop=1;jettySize=auto;html=1;entryX=0;entryY=0.5;entryDx=0;entryDy=0;strokeColor=default;align=center;verticalAlign=middle;fontFamily=Helvetica;fontSize=15;fontColor=default;labelBackgroundColor=default;endArrow=classic;" parent="1" source="bajX8-q50_OBg6LSKrls-58" target="bajX8-q50_OBg6LSKrls-100" edge="1">
          <mxGeometry relative="1" as="geometry" />
        </mxCell>
        <mxCell id="bajX8-q50_OBg6LSKrls-52" style="edgeStyle=orthogonalEdgeStyle;shape=connector;curved=1;rounded=0;orthogonalLoop=1;jettySize=auto;html=1;entryX=0;entryY=0.5;entryDx=0;entryDy=0;strokeColor=default;align=center;verticalAlign=middle;fontFamily=Helvetica;fontSize=15;fontColor=default;labelBackgroundColor=default;endArrow=classic;" parent="1" source="bajX8-q50_OBg6LSKrls-58" target="bajX8-q50_OBg6LSKrls-101" edge="1">
          <mxGeometry relative="1" as="geometry" />
        </mxCell>
        <mxCell id="bajX8-q50_OBg6LSKrls-53" style="edgeStyle=orthogonalEdgeStyle;shape=connector;curved=1;rounded=0;orthogonalLoop=1;jettySize=auto;html=1;entryX=0;entryY=0.5;entryDx=0;entryDy=0;strokeColor=default;align=center;verticalAlign=middle;fontFamily=Helvetica;fontSize=15;fontColor=default;labelBackgroundColor=default;endArrow=classic;" parent="1" source="bajX8-q50_OBg6LSKrls-58" target="bajX8-q50_OBg6LSKrls-83" edge="1">
          <mxGeometry relative="1" as="geometry" />
        </mxCell>
        <mxCell id="bajX8-q50_OBg6LSKrls-54" style="edgeStyle=orthogonalEdgeStyle;shape=connector;curved=1;rounded=0;orthogonalLoop=1;jettySize=auto;html=1;entryX=0;entryY=0.5;entryDx=0;entryDy=0;strokeColor=default;align=center;verticalAlign=middle;fontFamily=Helvetica;fontSize=15;fontColor=default;labelBackgroundColor=default;endArrow=classic;" parent="1" source="bajX8-q50_OBg6LSKrls-58" target="bajX8-q50_OBg6LSKrls-84" edge="1">
          <mxGeometry relative="1" as="geometry" />
        </mxCell>
        <mxCell id="bajX8-q50_OBg6LSKrls-55" style="edgeStyle=orthogonalEdgeStyle;shape=connector;curved=1;rounded=0;orthogonalLoop=1;jettySize=auto;html=1;entryX=0;entryY=0.5;entryDx=0;entryDy=0;strokeColor=default;align=center;verticalAlign=middle;fontFamily=Helvetica;fontSize=15;fontColor=default;labelBackgroundColor=default;endArrow=classic;" parent="1" source="bajX8-q50_OBg6LSKrls-58" target="bajX8-q50_OBg6LSKrls-85" edge="1">
          <mxGeometry relative="1" as="geometry" />
        </mxCell>
        <mxCell id="bajX8-q50_OBg6LSKrls-56" style="edgeStyle=orthogonalEdgeStyle;shape=connector;curved=1;rounded=0;orthogonalLoop=1;jettySize=auto;html=1;entryX=0;entryY=0.5;entryDx=0;entryDy=0;strokeColor=default;align=center;verticalAlign=middle;fontFamily=Helvetica;fontSize=15;fontColor=default;labelBackgroundColor=default;endArrow=classic;" parent="1" source="bajX8-q50_OBg6LSKrls-58" target="bajX8-q50_OBg6LSKrls-86" edge="1">
          <mxGeometry relative="1" as="geometry" />
        </mxCell>
        <mxCell id="bajX8-q50_OBg6LSKrls-57" style="edgeStyle=orthogonalEdgeStyle;shape=connector;curved=1;rounded=0;orthogonalLoop=1;jettySize=auto;html=1;entryX=0;entryY=0.5;entryDx=0;entryDy=0;strokeColor=default;align=center;verticalAlign=middle;fontFamily=Helvetica;fontSize=15;fontColor=default;labelBackgroundColor=default;endArrow=classic;" parent="1" source="bajX8-q50_OBg6LSKrls-58" target="bajX8-q50_OBg6LSKrls-87" edge="1">
          <mxGeometry relative="1" as="geometry" />
        </mxCell>
        <mxCell id="bajX8-q50_OBg6LSKrls-58" value="Получать информацию об отпускных днях сотрудников без постоянных напоминаний" style="rounded=1;whiteSpace=wrap;html=1;fillColor=#B9EDE3;strokeColor=#67AB9F;fontSize=15;" parent="1" vertex="1">
          <mxGeometry x="700" y="730" width="160" height="110" as="geometry" />
        </mxCell>
        <mxCell id="bajX8-q50_OBg6LSKrls-59" style="edgeStyle=orthogonalEdgeStyle;shape=connector;curved=1;rounded=0;orthogonalLoop=1;jettySize=auto;html=1;entryX=0;entryY=0.5;entryDx=0;entryDy=0;strokeColor=default;align=center;verticalAlign=middle;fontFamily=Helvetica;fontSize=15;fontColor=default;labelBackgroundColor=default;endArrow=classic;" parent="1" source="bajX8-q50_OBg6LSKrls-63" target="bajX8-q50_OBg6LSKrls-94" edge="1">
          <mxGeometry relative="1" as="geometry" />
        </mxCell>
        <mxCell id="bajX8-q50_OBg6LSKrls-60" style="edgeStyle=orthogonalEdgeStyle;shape=connector;curved=1;rounded=0;orthogonalLoop=1;jettySize=auto;html=1;entryX=0;entryY=0.5;entryDx=0;entryDy=0;strokeColor=default;align=center;verticalAlign=middle;fontFamily=Helvetica;fontSize=15;fontColor=default;labelBackgroundColor=default;endArrow=classic;" parent="1" source="bajX8-q50_OBg6LSKrls-63" target="bajX8-q50_OBg6LSKrls-95" edge="1">
          <mxGeometry relative="1" as="geometry" />
        </mxCell>
        <mxCell id="bajX8-q50_OBg6LSKrls-61" style="edgeStyle=orthogonalEdgeStyle;shape=connector;curved=1;rounded=0;orthogonalLoop=1;jettySize=auto;html=1;entryX=0;entryY=0.5;entryDx=0;entryDy=0;strokeColor=default;align=center;verticalAlign=middle;fontFamily=Helvetica;fontSize=15;fontColor=default;labelBackgroundColor=default;endArrow=classic;" parent="1" source="bajX8-q50_OBg6LSKrls-63" target="bajX8-q50_OBg6LSKrls-98" edge="1">
          <mxGeometry relative="1" as="geometry" />
        </mxCell>
        <mxCell id="bajX8-q50_OBg6LSKrls-62" style="edgeStyle=orthogonalEdgeStyle;shape=connector;curved=1;rounded=0;orthogonalLoop=1;jettySize=auto;html=1;entryX=0;entryY=0.5;entryDx=0;entryDy=0;strokeColor=default;align=center;verticalAlign=middle;fontFamily=Helvetica;fontSize=15;fontColor=default;labelBackgroundColor=default;endArrow=classic;" parent="1" source="bajX8-q50_OBg6LSKrls-63" target="bajX8-q50_OBg6LSKrls-106" edge="1">
          <mxGeometry relative="1" as="geometry" />
        </mxCell>
        <mxCell id="bajX8-q50_OBg6LSKrls-63" value="Иметь инструмент планирования отпускных дней с учетом отпусков команды" style="rounded=1;whiteSpace=wrap;html=1;fillColor=#B9EDE3;strokeColor=#67AB9F;fontSize=15;" parent="1" vertex="1">
          <mxGeometry x="720" y="2485" width="160" height="110" as="geometry" />
        </mxCell>
        <mxCell id="bajX8-q50_OBg6LSKrls-64" style="edgeStyle=orthogonalEdgeStyle;shape=connector;curved=1;rounded=0;orthogonalLoop=1;jettySize=auto;html=1;entryX=0;entryY=0.5;entryDx=0;entryDy=0;strokeColor=default;align=center;verticalAlign=middle;fontFamily=Helvetica;fontSize=15;fontColor=default;labelBackgroundColor=default;endArrow=classic;" parent="1" source="bajX8-q50_OBg6LSKrls-66" target="bajX8-q50_OBg6LSKrls-97" edge="1">
          <mxGeometry relative="1" as="geometry" />
        </mxCell>
        <mxCell id="bajX8-q50_OBg6LSKrls-65" style="edgeStyle=orthogonalEdgeStyle;shape=connector;curved=1;rounded=0;orthogonalLoop=1;jettySize=auto;html=1;entryX=0;entryY=0.5;entryDx=0;entryDy=0;strokeColor=default;align=center;verticalAlign=middle;fontFamily=Helvetica;fontSize=15;fontColor=default;labelBackgroundColor=default;endArrow=classic;" parent="1" source="bajX8-q50_OBg6LSKrls-66" target="bajX8-q50_OBg6LSKrls-96" edge="1">
          <mxGeometry relative="1" as="geometry" />
        </mxCell>
        <mxCell id="bajX8-q50_OBg6LSKrls-66" value="Автоматически получать информацию об обновлениях статусов согласования отпускных дней" style="rounded=1;whiteSpace=wrap;html=1;fillColor=#B9EDE3;strokeColor=#67AB9F;fontSize=15;" parent="1" vertex="1">
          <mxGeometry x="710" y="2820" width="160" height="110" as="geometry" />
        </mxCell>
        <mxCell id="bajX8-q50_OBg6LSKrls-67" style="edgeStyle=orthogonalEdgeStyle;shape=connector;curved=1;rounded=0;orthogonalLoop=1;jettySize=auto;html=1;entryX=0;entryY=0.5;entryDx=0;entryDy=0;strokeColor=default;align=center;verticalAlign=middle;fontFamily=Helvetica;fontSize=15;fontColor=default;labelBackgroundColor=default;endArrow=classic;" parent="1" source="bajX8-q50_OBg6LSKrls-69" target="bajX8-q50_OBg6LSKrls-103" edge="1">
          <mxGeometry relative="1" as="geometry" />
        </mxCell>
        <mxCell id="bajX8-q50_OBg6LSKrls-68" style="edgeStyle=orthogonalEdgeStyle;shape=connector;curved=1;rounded=0;orthogonalLoop=1;jettySize=auto;html=1;entryX=0;entryY=0.5;entryDx=0;entryDy=0;strokeColor=default;align=center;verticalAlign=middle;fontFamily=Helvetica;fontSize=15;fontColor=default;labelBackgroundColor=default;endArrow=classic;" parent="1" source="bajX8-q50_OBg6LSKrls-69" target="bajX8-q50_OBg6LSKrls-102" edge="1">
          <mxGeometry relative="1" as="geometry" />
        </mxCell>
        <mxCell id="bajX8-q50_OBg6LSKrls-69" value="Запрашивать перенос отпускных дней на следующий год" style="rounded=1;whiteSpace=wrap;html=1;fillColor=#B9EDE3;strokeColor=#67AB9F;fontSize=15;" parent="1" vertex="1">
          <mxGeometry x="710" y="3060" width="160" height="110" as="geometry" />
        </mxCell>
        <mxCell id="bajX8-q50_OBg6LSKrls-70" style="edgeStyle=orthogonalEdgeStyle;shape=connector;curved=1;rounded=0;orthogonalLoop=1;jettySize=auto;html=1;entryX=0;entryY=0.5;entryDx=0;entryDy=0;strokeColor=default;align=center;verticalAlign=middle;fontFamily=Helvetica;fontSize=15;fontColor=default;labelBackgroundColor=default;endArrow=classic;" parent="1" source="bajX8-q50_OBg6LSKrls-72" target="bajX8-q50_OBg6LSKrls-104" edge="1">
          <mxGeometry relative="1" as="geometry" />
        </mxCell>
        <mxCell id="bajX8-q50_OBg6LSKrls-71" style="edgeStyle=orthogonalEdgeStyle;shape=connector;curved=1;rounded=0;orthogonalLoop=1;jettySize=auto;html=1;entryX=0;entryY=0.5;entryDx=0;entryDy=0;strokeColor=default;align=center;verticalAlign=middle;fontFamily=Helvetica;fontSize=15;fontColor=default;labelBackgroundColor=default;endArrow=classic;" parent="1" source="bajX8-q50_OBg6LSKrls-72" target="bajX8-q50_OBg6LSKrls-105" edge="1">
          <mxGeometry relative="1" as="geometry" />
        </mxCell>
        <mxCell id="bajX8-q50_OBg6LSKrls-72" value="Автоматически получать актуальную информацию об отпускных днях проектной команды" style="rounded=1;whiteSpace=wrap;html=1;fillColor=#B9EDE3;strokeColor=#67AB9F;fontSize=15;" parent="1" vertex="1">
          <mxGeometry x="710" y="3310" width="160" height="110" as="geometry" />
        </mxCell>
        <mxCell id="bajX8-q50_OBg6LSKrls-73" style="edgeStyle=orthogonalEdgeStyle;shape=connector;curved=1;rounded=0;orthogonalLoop=1;jettySize=auto;html=1;entryX=0;entryY=0.5;entryDx=0;entryDy=0;strokeColor=default;align=center;verticalAlign=middle;fontFamily=Helvetica;fontSize=15;fontColor=default;labelBackgroundColor=default;endArrow=classic;" parent="1" source="bajX8-q50_OBg6LSKrls-75" target="bajX8-q50_OBg6LSKrls-93" edge="1">
          <mxGeometry relative="1" as="geometry" />
        </mxCell>
        <mxCell id="bajX8-q50_OBg6LSKrls-74" style="edgeStyle=orthogonalEdgeStyle;shape=connector;curved=1;rounded=0;orthogonalLoop=1;jettySize=auto;html=1;entryX=0;entryY=0.5;entryDx=0;entryDy=0;strokeColor=default;align=center;verticalAlign=middle;fontFamily=Helvetica;fontSize=15;fontColor=default;labelBackgroundColor=default;endArrow=classic;" parent="1" source="bajX8-q50_OBg6LSKrls-75" target="bajX8-q50_OBg6LSKrls-90" edge="1">
          <mxGeometry relative="1" as="geometry" />
        </mxCell>
        <mxCell id="bajX8-q50_OBg6LSKrls-75" value="Оперативнее согласовывать отпускные дни команды с заказчиком" style="rounded=1;whiteSpace=wrap;html=1;fillColor=#B9EDE3;strokeColor=#67AB9F;fontSize=15;" parent="1" vertex="1">
          <mxGeometry x="710" y="2095" width="160" height="110" as="geometry" />
        </mxCell>
        <mxCell id="bajX8-q50_OBg6LSKrls-76" value="Отправка информации об отпускных днях в учетные системы с помощью API" style="rounded=1;whiteSpace=wrap;html=1;fillColor=#D5E8D4;strokeColor=#97D077;fontSize=15;" parent="1" vertex="1">
          <mxGeometry x="920" y="-560" width="160" height="100" as="geometry" />
        </mxCell>
        <mxCell id="bajX8-q50_OBg6LSKrls-77" value="Отправка запросов на подтверждение с помощью планировщика" style="rounded=1;whiteSpace=wrap;html=1;fillColor=#D5E8D4;strokeColor=#97D077;fontSize=15;" parent="1" vertex="1">
          <mxGeometry x="920" y="-290" width="160" height="100" as="geometry" />
        </mxCell>
        <mxCell id="bajX8-q50_OBg6LSKrls-78" value="Отображение статусов подтверждения отпусков сотрудниками" style="rounded=1;whiteSpace=wrap;html=1;fillColor=#D5E8D4;strokeColor=#97D077;fontSize=15;" parent="1" vertex="1">
          <mxGeometry x="920" y="-140" width="160" height="100" as="geometry" />
        </mxCell>
        <mxCell id="bajX8-q50_OBg6LSKrls-79" value="Отображение установленных отпускных дней" style="rounded=1;whiteSpace=wrap;html=1;fillColor=#D5E8D4;strokeColor=#97D077;fontSize=15;" parent="1" vertex="1">
          <mxGeometry x="920" y="-440" width="160" height="100" as="geometry" />
        </mxCell>
        <mxCell id="bajX8-q50_OBg6LSKrls-80" value="Получение уведомлений о необходимости в выплате с помощью планировщика" style="rounded=1;whiteSpace=wrap;html=1;fillColor=#D5E8D4;strokeColor=#97D077;fontSize=15;" parent="1" vertex="1">
          <mxGeometry x="920" y="-10" width="160" height="100" as="geometry" />
        </mxCell>
        <mxCell id="bajX8-q50_OBg6LSKrls-81" value="Отображение информации о статусах оплаты отпусков" style="rounded=1;whiteSpace=wrap;html=1;fillColor=#D5E8D4;strokeColor=#97D077;fontSize=15;" parent="1" vertex="1">
          <mxGeometry x="920" y="123.5" width="160" height="100" as="geometry" />
        </mxCell>
        <mxCell id="bajX8-q50_OBg6LSKrls-82" value="Отображение информации о сотрудниках, не запланировавших отпускные дни" style="rounded=1;whiteSpace=wrap;html=1;fillColor=#D5E8D4;strokeColor=#97D077;fontSize=15;" parent="1" vertex="1">
          <mxGeometry x="920" y="260" width="160" height="100" as="geometry" />
        </mxCell>
        <mxCell id="bajX8-q50_OBg6LSKrls-83" value="Функция отправки уведомления сотруднику о необходимости в планировании отпуска" style="rounded=1;whiteSpace=wrap;html=1;fillColor=#D5E8D4;strokeColor=#97D077;fontSize=15;" parent="1" vertex="1">
          <mxGeometry x="920" y="640" width="160" height="100" as="geometry" />
        </mxCell>
        <mxCell id="bajX8-q50_OBg6LSKrls-84" value="Отображение информации об отправленных уведомлениях сотрудникам с необходимостью в планировании отпуска" style="rounded=1;whiteSpace=wrap;html=1;fillColor=#D5E8D4;strokeColor=#97D077;fontSize=15;" parent="1" vertex="1">
          <mxGeometry x="920" y="770" width="160" height="150" as="geometry" />
        </mxCell>
        <mxCell id="bajX8-q50_OBg6LSKrls-85" value="Отображение данных о лимитах и остатках отпускных дней сотрудников" style="rounded=1;whiteSpace=wrap;html=1;fillColor=#D5E8D4;strokeColor=#97D077;fontSize=15;" parent="1" vertex="1">
          <mxGeometry x="920" y="950" width="160" height="100" as="geometry" />
        </mxCell>
        <mxCell id="bajX8-q50_OBg6LSKrls-86" value="Функция изменения лимита отпускных дней сотрудника" style="rounded=1;whiteSpace=wrap;html=1;fillColor=#D5E8D4;strokeColor=#97D077;fontSize=15;" parent="1" vertex="1">
          <mxGeometry x="920" y="1079" width="160" height="90" as="geometry" />
        </mxCell>
        <mxCell id="bajX8-q50_OBg6LSKrls-87" value="Отображение запросов на перенос отпускных дней" style="rounded=1;whiteSpace=wrap;html=1;fillColor=#D5E8D4;strokeColor=#97D077;fontSize=15;" parent="1" vertex="1">
          <mxGeometry x="920" y="1210" width="160" height="90" as="geometry" />
        </mxCell>
        <mxCell id="bajX8-q50_OBg6LSKrls-88" value="Отображение запросов на отпускные дни команды" style="rounded=1;whiteSpace=wrap;html=1;fillColor=#D5E8D4;strokeColor=#97D077;fontSize=15;" parent="1" vertex="1">
          <mxGeometry x="920" y="1490" width="160" height="100" as="geometry" />
        </mxCell>
        <mxCell id="bajX8-q50_OBg6LSKrls-89" value="Уведомление при появлении нового запроса на отпуск от члена проектной команды" style="rounded=1;whiteSpace=wrap;html=1;fillColor=#D5E8D4;strokeColor=#97D077;fontSize=15;" parent="1" vertex="1">
          <mxGeometry x="920" y="1370" width="160" height="100" as="geometry" />
        </mxCell>
        <mxCell id="bajX8-q50_OBg6LSKrls-90" value="Функция смены статуса результата согласования отпускных дней" style="rounded=1;whiteSpace=wrap;html=1;fillColor=#D5E8D4;strokeColor=#97D077;fontSize=15;" parent="1" vertex="1">
          <mxGeometry x="920" y="2180" width="160" height="100" as="geometry" />
        </mxCell>
        <mxCell id="bajX8-q50_OBg6LSKrls-91" value="Экспорт данных отпускных дней проектной команды" style="rounded=1;whiteSpace=wrap;html=1;fillColor=#D5E8D4;strokeColor=#97D077;fontSize=15;" parent="1" vertex="1">
          <mxGeometry x="920" y="1754" width="160" height="100" as="geometry" />
        </mxCell>
        <mxCell id="bajX8-q50_OBg6LSKrls-92" value="Отправка данных отпускных дней проектной команды заказчику" style="rounded=1;whiteSpace=wrap;html=1;fillColor=#D5E8D4;strokeColor=#97D077;fontSize=15;" parent="1" vertex="1">
          <mxGeometry x="920" y="1900" width="160" height="100" as="geometry" />
        </mxCell>
        <mxCell id="bajX8-q50_OBg6LSKrls-93" value="Отображение статусов согласования от заказчика" style="rounded=1;whiteSpace=wrap;html=1;fillColor=#D5E8D4;strokeColor=#97D077;fontSize=15;" parent="1" vertex="1">
          <mxGeometry x="920" y="2050" width="160" height="100" as="geometry" />
        </mxCell>
        <mxCell id="bajX8-q50_OBg6LSKrls-94" value="Отображение запрошенных отпускных дней членов проектной команды" style="rounded=1;whiteSpace=wrap;html=1;fillColor=#D5E8D4;strokeColor=#97D077;fontSize=15;" parent="1" vertex="1">
          <mxGeometry x="920" y="2310" width="160" height="100" as="geometry" />
        </mxCell>
        <mxCell id="bajX8-q50_OBg6LSKrls-95" value="Страница с черновиком планирования отпускных дней" style="rounded=1;whiteSpace=wrap;html=1;fillColor=#D5E8D4;strokeColor=#97D077;fontSize=15;" parent="1" vertex="1">
          <mxGeometry x="920" y="2430" width="160" height="100" as="geometry" />
        </mxCell>
        <mxCell id="bajX8-q50_OBg6LSKrls-96" value="Уведомления о смене статуса согласования отпускных дней" style="rounded=1;whiteSpace=wrap;html=1;fillColor=#D5E8D4;strokeColor=#97D077;fontSize=15;" parent="1" vertex="1">
          <mxGeometry x="920" y="2900" width="160" height="100" as="geometry" />
        </mxCell>
        <mxCell id="bajX8-q50_OBg6LSKrls-97" value="Страница с запрошенными отпускными днями" style="rounded=1;whiteSpace=wrap;html=1;fillColor=#D5E8D4;strokeColor=#97D077;fontSize=15;" parent="1" vertex="1">
          <mxGeometry x="920" y="2780" width="160" height="100" as="geometry" />
        </mxCell>
        <mxCell id="bajX8-q50_OBg6LSKrls-98" value="Отображение лимитов отпускных дней" style="rounded=1;whiteSpace=wrap;html=1;fillColor=#D5E8D4;strokeColor=#97D077;fontSize=15;" parent="1" vertex="1">
          <mxGeometry x="920" y="2540" width="160" height="100" as="geometry" />
        </mxCell>
        <mxCell id="bajX8-q50_OBg6LSKrls-99" value="Иметь представление о пересечениях отпускных дней сотрудников проектной команды" style="rounded=1;whiteSpace=wrap;html=1;fillColor=#D5E8D4;strokeColor=#97D077;fontSize=15;" parent="1" vertex="1">
          <mxGeometry x="920" y="1610" width="160" height="100" as="geometry" />
        </mxCell>
        <mxCell id="bajX8-q50_OBg6LSKrls-100" value="Уведомление о смене статуса согласования отпускных дней" style="rounded=1;whiteSpace=wrap;html=1;fillColor=#D5E8D4;strokeColor=#97D077;fontSize=15;" parent="1" vertex="1">
          <mxGeometry x="920" y="400" width="160" height="100" as="geometry" />
        </mxCell>
        <mxCell id="bajX8-q50_OBg6LSKrls-101" value="Отображение статусов согласования отпускных дней сотрудников" style="rounded=1;whiteSpace=wrap;html=1;fillColor=#D5E8D4;strokeColor=#97D077;fontSize=15;" parent="1" vertex="1">
          <mxGeometry x="920" y="520" width="160" height="100" as="geometry" />
        </mxCell>
        <mxCell id="bajX8-q50_OBg6LSKrls-102" value="Уведомления о смене статуса согласования переноса отпускных дней" style="rounded=1;whiteSpace=wrap;html=1;fillColor=#D5E8D4;strokeColor=#97D077;fontSize=15;" parent="1" vertex="1">
          <mxGeometry x="920" y="3140" width="160" height="100" as="geometry" />
        </mxCell>
        <mxCell id="bajX8-q50_OBg6LSKrls-103" value="Страница с запрошенными переносами" style="rounded=1;whiteSpace=wrap;html=1;fillColor=#D5E8D4;strokeColor=#97D077;fontSize=15;" parent="1" vertex="1">
          <mxGeometry x="920" y="3020" width="160" height="100" as="geometry" />
        </mxCell>
        <mxCell id="bajX8-q50_OBg6LSKrls-104" value="Страница с отпускными днями проектной команды" style="rounded=1;whiteSpace=wrap;html=1;fillColor=#D5E8D4;strokeColor=#97D077;fontSize=15;" parent="1" vertex="1">
          <mxGeometry x="920" y="3270" width="160" height="100" as="geometry" />
        </mxCell>
        <mxCell id="bajX8-q50_OBg6LSKrls-105" value="Страница с запросами на подтверждение отпускных дней проектной команды" style="rounded=1;whiteSpace=wrap;html=1;fillColor=#D5E8D4;strokeColor=#97D077;fontSize=15;" parent="1" vertex="1">
          <mxGeometry x="920" y="3390.75" width="160" height="100" as="geometry" />
        </mxCell>
        <mxCell id="bajX8-q50_OBg6LSKrls-106" value="Отображение календаря рабочих дней" style="rounded=1;whiteSpace=wrap;html=1;fillColor=#D5E8D4;strokeColor=#97D077;fontSize=15;" parent="1" vertex="1">
          <mxGeometry x="920" y="2651.5" width="160" height="100" as="geometry" />
        </mxCell>
        <mxCell id="xRguKIRFYBWjt8j2Ypbr-1" value="Карта влияния" style="text;strokeColor=none;align=center;fillColor=none;html=1;verticalAlign=middle;whiteSpace=wrap;rounded=0;fontSize=64;" parent="1" vertex="1">
          <mxGeometry x="110" y="-710" width="730" height="30" as="geometry" />
        </mxCell>
      </root>
    </mxGraphModel>
  </diagram>
</mxfile>
